<svg xmlns="http://www.w3.org/2000/svg" viewBox="0 0 71.19 233.9"><title>Asset 12</title><g id="Layer_2" data-name="Layer 2"><g id="Layer_5" data-name="Layer 5"><g id="tQ87KV.tif"><path d="M13,125.93,6.81,132.6,5.6,132a36,36,0,0,1,2.27-5.28c1.75-2.79,3.35-5,2.34-9-.8-3.12,1.22-7,2.16-10.5.42-1.58,1.41-3,1.86-4.58C15.33,98.73,15.3,96,9.86,95,2.53,93.65.25,88.76,2.05,81.55c1-4,2.26-8.14,2.34-12.24.19-9.1,5.31-15.18,11.68-20.48,2.53-2.1,2.78-3.8,1.8-6.76C14,30.43,19.88,12.36,28.79,4.84,40.73-5.23,56.24,2.05,61.12,11.71c4,7.87,5.78,16.21,2.87,25.09-1,3-2.5,3.71-5.45,3.66s-6,.75-9,1.17l-.14,1.5c2.59,1.21,5.15,2.49,7.78,3.62,8.44,3.64,12.38,9.87,12.53,19a134.38,134.38,0,0,0,1.36,15.77c.8,6-2,9.36-10,11.22-4.91,1.15-6.27,3.49-4.18,8.25,1.32,3,3.65,5.56,5,8.54,1.05,2.27,2.07,5,1.82,7.35-.83,7.73-2.48,15.38-3.4,23.12-1.14,9.57-1.71,19.22-2.81,28.8-.93,8.08-2.23,16.11-3.42,24.16-.89,6,.45,12-2.09,18.12-.89,2.14,2.76,6.66,5.06,9.51s5.59,4.7,8.18,7.28A5.56,5.56,0,0,1,66.91,232c-.14.84-2.27,1.76-3.59,1.89a9.15,9.15,0,0,1-4.84-.82c-6-3-12.2-5.93-17.81-9.63-1.55-1-1.65-4.64-1.9-7.12a75.9,75.9,0,0,1-.08-9.3c.08-3.31.24-6.61.46-9.91.31-4.44.94-8.88,1-13.34.13-8.1-.27-16.21,0-24.31a45.48,45.48,0,0,0-2.84-16.62l-1.63-.06a24.68,24.68,0,0,0-1.33,4.7c-1.44,17.58-2.74,35.18-4.19,52.76-.19,2.28-1.12,4.49-1.5,6.76-.45,2.59-1.44,5.41-.82,7.77,1.38,5.27-.7,8.12-5.09,10.4-3.23,1.68-6.05,4.22-9.35,5.72a35.73,35.73,0,0,1-9.5,2.46c-1.18.18-2.57-1-3.86-1.6.63-1.28,1-2.84,1.93-3.78,2.62-2.56,5.52-4.81,8.25-7.24,3.37-3,6.38-6.1,3.54-11.13a4.45,4.45,0,0,1-.22-2.4A530.21,530.21,0,0,0,13,125.93ZM36.47,7.14c-4.23-.83-7.68,1.54-9.37,6.05a125,125,0,0,0-4.48,15.2,5.44,5.44,0,0,0,1.5,4.29c3.06,3,6.87,5.21,9.64,8.39,6.1,7,6.89-2.39,10.29-3.43C54.28,34.51,56.12,30,53.6,19.72,51.67,11.89,45.52,7.13,36.47,7.14Zm-.8,47.7c3.77-3.63,4.14-5.67,1.36-6.54s-5.6-1.41-9.17-2.28ZM38,82.17c1.12-2.09,2.3-3.29,2.13-4.25s-1.64-1.82-2.55-2.72c-.85,1-2.32,1.89-2.4,2.91S36.5,80.15,38,82.17Z"/></g></g></g></svg>