<svg xmlns="http://www.w3.org/2000/svg" viewBox="0 0 145.88 274.92"><defs><style>.cls-1{fill:#fff;}</style></defs><title>Asset 4</title><g id="Layer_2" data-name="Layer 2"><g id="Layer_5" data-name="Layer 5"><g id="KlTsfZ.tif"><g id="AQapoV.tif"><g id="zmxsUX.tif"><path class="cls-1" d="M0,259.92V0H145.88V274.92H0v-12c13,.16,26,.48,39,.45,32.31-.07,64.61-.3,96.92-.52,1.44,0,2.87-.61,5.17-1.13-11.63-1.65-22.15-3.1-32.65-4.64-8.61-1.27-8.45-1.36-9-10.23-.85-12.78-2-25.53-2.93-38.3-.24-3.26-.32-6.23-4.31-7.51-1-.31-1.57-2.83-1.66-4.37q-.78-13.47-1.18-26.95c-.22-6.95-.12-7,6.7-7.48,2.8-.2,5.09-.7,4.46-4.33-1.92-10.92-3.91-21.84-5.74-32.78-.69-4.06-1-8.17-1.55-12.26l2-.33a42.17,42.17,0,0,1,1.61,4.92c2.76,13.86,5.44,27.73,8.15,41.6,1.13,5.8.39,12.65,8.35,14.59.65.17,1.1,1.18,2.17,2.39-1.08-14.49-2.45-28-3-41.63-.62-14.75-2.48-29.13-8.33-42.81-3-7-5.79-14.15-8.78-21.17a6.6,6.6,0,0,0-2.4-3.07c-6.63-3.8-13.26-7.6-20.12-10.94a6.33,6.33,0,0,0-5.71.92c-4.38,4.07-8.61,3.93-13.65,1.39a7.57,7.57,0,0,0-6.3.18A127.12,127.12,0,0,0,30.46,70.7a19.21,19.21,0,0,0-5.81,9.42c-2.16,9-3.51,18.27-5,27.46-1.14,7-3.16,14.17-2.74,21.15,1,16.17,3.13,32.28,5,48.39.15,1.29,1.88,3.55,2.39,3.42,1.9-.48,4.27-1.36,5.2-2.87s.24-3.85.2-5.84c-.16-8.65-.43-17.31-.43-26,0-1.1,1.31-2.2,2-3.3.8,1.11,2.23,2.19,2.27,3.32.1,2.8-.53,5.62-.71,8.44-.36,5.42-1.27,8.2,6.34,8.18,4,0,5.7,1.92,5.79,6.21.22,9.65,1.06,19.27,1.53,28.91.06,1.2-.42,3.36-1,3.5-5.72,1.4-4.45,5.92-4.48,9.7-.12,13.33-.09,26.66-.11,40,0,2.56.09,5.26-3.31,5.77-7.51,1.11-15,2.33-22.57,3.08C10,260.14,5,259.86,0,259.92ZM55.5,46.08c6.49,0,12.4.14,18.31-.13,1,0,2.56-1.68,2.75-2.78,1.37-7.94,3.71-16.18-5.12-21.85-1.91-1.24-3.24-3.36-5.09-4.74a8.18,8.18,0,0,0-4.42-1.79c-10.6,0-18.29,4.94-23.27,14.18a5.62,5.62,0,0,0-.46,3.32c.73,4.59,1.49,9.18,2.6,13.68.31,1.27,1.76,3,2.88,3.19,6.3.89,8-.38,10-6.57.1-.3.56-.49,1-.8Z"/><path d="M0,259.92c5-.06,10,.22,15-.26,7.55-.75,15.06-2,22.57-3.08,3.4-.51,3.31-3.21,3.31-5.77,0-13.33,0-26.66.11-40,0-3.78-1.24-8.3,4.48-9.7.6-.14,1.08-2.3,1-3.5-.47-9.64-1.31-19.26-1.53-28.91-.09-4.29-1.82-6.22-5.79-6.21-7.61,0-6.7-2.76-6.34-8.18.18-2.82.81-5.64.71-8.44,0-1.13-1.47-2.21-2.27-3.32-.7,1.1-2,2.2-2,3.3,0,8.66.27,17.32.43,26,0,2,.69,4.4-.2,5.84s-3.3,2.39-5.2,2.87c-.51.13-2.24-2.13-2.39-3.42-1.84-16.11-4-32.22-5-48.39-.42-7,1.6-14.12,2.74-21.15,1.49-9.19,2.84-18.43,5-27.46a19.21,19.21,0,0,1,5.81-9.42A127.12,127.12,0,0,1,47.09,58.91a7.57,7.57,0,0,1,6.3-.18c5,2.54,9.27,2.68,13.65-1.39a6.33,6.33,0,0,1,5.71-.92c6.86,3.34,13.49,7.14,20.12,10.94a6.6,6.6,0,0,1,2.4,3.07c3,7,5.77,14.14,8.78,21.17,5.85,13.68,7.71,28.06,8.33,42.81.57,13.58,1.94,27.14,3,41.63-1.07-1.21-1.52-2.22-2.17-2.39-8-1.94-7.22-8.79-8.35-14.59-2.71-13.87-5.39-27.74-8.15-41.6a42.17,42.17,0,0,0-1.61-4.92l-2,.33c.51,4.09.86,8.2,1.55,12.26,1.83,10.94,3.82,21.86,5.74,32.78.63,3.63-1.66,4.13-4.46,4.33-6.82.48-6.92.53-6.7,7.48q.42,13.49,1.18,26.95c.09,1.54.71,4.06,1.66,4.37,4,1.28,4.07,4.25,4.31,7.51.93,12.77,2.08,25.52,2.93,38.3.59,8.87.43,9,9,10.23,10.5,1.54,21,3,32.65,4.64-2.3.52-3.73,1.12-5.17,1.13-32.31.22-64.61.45-96.92.52-13,0-26-.29-39-.45Zm55.82-93.69c-.53,10.08-1.14,21-1.63,31.89,0,.88.75,1.78,1.06,2.7.75,2.24,2.08,4.51,2,6.75-.2,15.46-.63,30.91-1.12,46.37-.12,3.73,1.15,5.72,5.07,5.58,6.31-.22,12.62-.6,18.93-.57,4,0,4.66-1.93,4.35-5.35-1.32-14.73-2.59-29.46-3.64-44.21-.15-2.1,1-4.29,1.51-6.45a14.12,14.12,0,0,0,.62-4.23C82,188.13,80.68,177.58,79.64,167c-.43-4.29-3.32-4-6.18-3.63C68,164.12,62.62,165.11,55.82,166.23ZM34.13,115.08l-1.31,0v11.65h1.31Z"/><path d="M55.5,46.08l-.9-4.29c-.39.31-.85.5-1,.8-2,6.19-3.67,7.46-10,6.57C42.56,49,41.11,47.24,40.8,46c-1.11-4.5-1.87-9.09-2.6-13.68A5.62,5.62,0,0,1,38.66,29c5-9.24,12.67-14.22,23.27-14.18a8.18,8.18,0,0,1,4.42,1.79c1.85,1.38,3.18,3.5,5.09,4.74,8.83,5.67,6.49,13.91,5.12,21.85-.19,1.1-1.76,2.74-2.75,2.78C67.9,46.22,62,46.08,55.5,46.08Z"/><path class="cls-1" d="M55.82,166.23c6.8-1.12,12.21-2.11,17.64-2.86,2.86-.4,5.75-.66,6.18,3.63,1,10.58,2.31,21.13,3.38,31.71a14.12,14.12,0,0,1-.62,4.23c-.48,2.16-1.66,4.35-1.51,6.45,1,14.75,2.32,29.48,3.64,44.21.31,3.42-.33,5.36-4.35,5.35-6.31,0-12.62.35-18.93.57-3.92.14-5.19-1.85-5.07-5.58.49-15.46.92-30.91,1.12-46.37,0-2.24-1.3-4.51-2-6.75-.31-.92-1.1-1.82-1.06-2.7C54.68,187.21,55.29,176.31,55.82,166.23Z"/><path class="cls-1" d="M34.13,115.08v11.61H32.82V115Z"/></g></g></g></g></g></svg>