<svg xmlns="http://www.w3.org/2000/svg" viewBox="0 0 10 15"><title>character</title><g id="Layer_2" data-name="Layer 2"><g id="Layer_1-2" data-name="Layer 1"><path d="M5,14.5A4.5,4.5,0,0,1,3.35,5.82l.81-.32L3.47,5a2.46,2.46,0,0,1-1-2,2.5,2.5,0,0,1,5,0,2.46,2.46,0,0,1-1,2l-.69.54.81.32A4.5,4.5,0,0,1,5,14.5Z"/><path d="M5,1A2,2,0,0,1,7,3a2,2,0,0,1-.78,1.57L5,5.52,3.78,4.57A2,2,0,0,1,3,3,2,2,0,0,1,5,1M5,5.71l1.47.58A4,4,0,1,1,1,10,4,4,0,0,1,3.53,6.29L5,5.71M5,0A3,3,0,0,0,3.17,5.36a5,5,0,1,0,3.66,0A3,3,0,0,0,5,0Z"/></g></g></svg>