<svg xmlns="http://www.w3.org/2000/svg" viewBox="0 0 173.09 289.63"><title>Asset 10</title><g id="Layer_2" data-name="Layer 2"><g id="Layer_5" data-name="Layer 5"><g id="_0tOddO.tif" data-name="0tOddO.tif"><path d="M135.13,279c-6.95,5.67-16.23,5.35-20.66-.42-7.58,10-9,12.8-16.72,5.32-1.66,2.61-3.67,3.94-6.78,2-.6-.37-2.22.33-3,1-5.09,3.91-6.45,3.86-11-.74a16.88,16.88,0,0,0-1.68-1.49c-.22-.17-.58-.16-1.21-.3l-2.61,3.05c-2.25-.5-4.34-.83-6.36-1.43a6.91,6.91,0,0,1-4.39-8.77c1.06-2.8,6.32-5.56,8.7-3.91,1.71,1.17,2.38,3.85,4,6.77,0-7.82.18-14.68-.08-21.52-.14-3.91-1.2-7.77-1.48-11.68-.24-3.31-1.38-4.85-4.85-3.92-4.37,1.17-6.4-.87-6.41-5.08,0-13.65-.19-27.3.18-40.94.2-7.69,1.94-15.38,1.77-23-.07-3.19-2.78-6.84-5.25-9.31-2.8-2.8-3.22-4.25-.1-6.72a5.6,5.6,0,0,0,2-3.8q-.3-23.22-1-46.45A84.56,84.56,0,0,0,56.9,96.68a15.24,15.24,0,0,1,4.29-13.76c5.94-6.14,9.09-13.6,8.79-22.06-.28-8.16,1.21-15.75,5.3-22.7a10.94,10.94,0,0,1,5.63-4.61c7.43-2.29,14.4-1.43,19.85,4.91.68.79,1.66,1.64,1.77,2.54.59,5.19,1.23,10.4,1.33,15.62.09,4.36-.88,8.75-.72,13.11.08,2,1.22,4.69,2.78,5.76,3.53,2.43,7.61,4.05,12.29,5.71a27.28,27.28,0,0,0-2.47-3.86c-1.3-1.47-3.25-2.47-4.21-4.09-.86-1.43-.74-3.43-1-5.18,1.76.29,3.86.08,5.23,1,2.33,1.53,4.21,3.75,6.49,5.87a32.85,32.85,0,0,1,2.48-3.17c2.67-2.58,5.72-1.93,7.39,1.35,5.77,11.41,6.77,23.8,7.48,36.23a6.3,6.3,0,0,1-1.11,3.85,48.24,48.24,0,0,1-4.71,4.78c-.86-1.92-1.75-3.82-2.59-5.75-.68-1.6-1.3-3.23-1.95-4.84l-2.08.52c.6,5.41,1.18,10.82,1.79,16.22.11,1,.82,2.44.38,3-4.64,6-1.83,12.5-1.42,18.86.55,8.58,1.53,17.21,1.13,25.76-.31,6.74-3.37,13.38-3.46,20.09-.11,7.44,1.47,15,2.88,22.34s3.81,14.35,5.17,21.62c.91,4.88-3.72,5.52-6.85,6.25-9.1,2.14-10.13,3.11-10.21,12.45,0,4.11,0,8.21,0,12.32,0,2.21.72,3.36,3.25,3.11a9.84,9.84,0,0,1,9.43,4.29C130.7,276.15,133.08,277.38,135.13,279ZM88.5,277.35l2.06.36c.62-4.56,3.12-6.72,7.51-7.21a4.44,4.44,0,0,0,2.86-3.23c.13-9.85.58-19.77-.35-29.54s-3.32-19.66-5.18-29.46c-.9-4.75-2.06-9.45-3.1-14.17-.33,9.48-.81,19-.11,28.4.32,4.33,1.65,8.17-2.1,11.68-.88.84-.8,2.83-.92,4.31-.3,3.47-.61,6.95-.64,10.43C88.45,258.4,88.5,267.87,88.5,277.35Z"/><path d="M33,48c-3.51,0-4.12,2-4.78,5-.58,2.68-2.94,5.3-5.15,7.22-3,2.64-6.69,4.59-10.34,7-1.7-3.63.52-6,2.5-7.59,4.36-3.49,7.29-7.2,7.16-13.23-.05-2.23,2.09-4.59,3.48-6.73,1.81-2.81.46-4.05-2.14-4.28-1.56-.14-3.83,0-4.68,1A174,174,0,0,0,7.76,50.84c-.77,1.1,0,3.2-.21,4.82-.09,1-.35,2.39-.94,2.63a2.83,2.83,0,0,1-2.68-.83C2.43,54.58.38,51.6.12,48.52c-1-11.66,4.2-20.74,13.13-27.88,2.92-2.33,5.81-2.3,8.53.47q1.91,2,3.92,3.8c2,1.79,3.17,1.91,5.53-.36a47.62,47.62,0,0,1,12.5-8.33c3.82-1.82,8-1.48,11.08,2.41A37.65,37.65,0,0,0,59.44,23c6.87,6.1,7,12,0,18.83l-2.34-4.7-.58.88c-2.12-1.12-4.18-2.4-6.39-3.3-1.28-.52-3.47-1.1-4.13-.47-2.78,2.62-5.37,2.21-8.65-.13.76,4.21,1.53,7.8,2,11.43.14,1.15-.57,2.4-.89,3.61a25.6,25.6,0,0,1-2.91-2.33A14.83,14.83,0,0,0,32,43.46Z"/><path d="M92.23,0c4.64,3,10.32-2.16,15,2.83,1,1.07,4.17-.18,6.21.25,7.4,1.58,10,8.11,13.39,13.68,3,5,5.47,10.45,8.51,15.5,2,3.32,4.93,3.2,5.85-.5,2.37-9.63,10.5-14.56,16.48-21.15,3-3.34,7.65-5.27,11.67-7.64.8-.47,2.13-.07,3.21-.07l.57,1.21c-1.87,1.58-3.65,3.29-5.64,4.7-3.32,2.36-7.19,4.1-10,6.9-2.35,2.32-3.66,5.74-5.26,8.76-1,1.82-1.19,4.17-2.48,5.65-6.47,7.43-3.81,15.09,4.23,18.54,3.85,1.65,7.3,4.64,10.31,7.65,1.34,1.35,1.54,4.24,1.48,6.41,0,1.27-1.58,2.5-2.44,3.75a15.68,15.68,0,0,1-1.49-3.7c-.48-3.59-7.61-9-12.74-9.49a11.48,11.48,0,0,1-3.93-.73c-5.07-2.58-5-2.65-9.49.48-.49-2.76-.93-5.31-1.38-7.86l-1.34-.54c-1,1.58-2,3.21-3.11,4.72a40.84,40.84,0,0,1-2.88,3.16c-.77-1.66-2.34-3.44-2.12-5,.38-2.61,2.2-5,2.8-7.61.4-1.75.41-4.3-.59-5.53a131.38,131.38,0,0,0-12.82-14.15c-5.31-4.91-11.23-9.16-16.84-13.74-2-1.64-3.9-3.43-5.84-5.15Z"/></g></g></g></svg>