<svg xmlns="http://www.w3.org/2000/svg" viewBox="0 0 162.35 274.14"><title>Asset 15</title><g id="Layer_2" data-name="Layer 2"><g id="Layer_5" data-name="Layer 5"><g id="KlTsfZ.tif"><g id="AQapoV.tif"><g id="SxAlWS.tif"><path d="M162.35,274.14.14,273.43,0,271.57a26.32,26.32,0,0,1,3.38-.52q21.48-.6,42.95-1.1c7.57-.17,10.31-3,10.66-10.44.5-10.48,1.25-20.94,2-31.39.09-1.28.28-3.29,1-3.65,5.3-2.49,4.35-7.6,4.84-11.76,1-8.55,1.2-17.2,2-25.79,1-10.9,2.19-21.78,3.32-32.67.5-4.74.32-8.76-6.28-8.35-.78,0-2.48-2.18-2.44-3.32.23-8.28.35-16.62,1.38-24.83,1.09-8.81-3.33-15-8.84-21.39-.49,6-1.12,12-1.47,18.09-1.15,20.41,2.71,40,9.51,59.17,1.27,3.57,1.42,6-3,7.73-3,1.14-5.41,3.78-7.93,5.93s-4.13,1.51-4.59-1.39c-2-12.38-5.53-24.34-4.94-37.31.91-20.26-.09-40.61-.56-60.91,0-1.44-2.23-3.15-3.8-4.13s-3.42-1-6.51-1.83C36,70.66,41,60.18,46.09,49.61L41,48.06c.77-1.7,1.7-3,1.89-4.31.69-4.93,1.08-9.91,1.7-14.86a28.08,28.08,0,0,1,1.29-6C47,20,49.2,17.24,49.5,14.28c1-9.71,15.91-18.8,28.21-11.81,2.38,1.35,3.69,5.38,4.53,8.44,1,3.61,2.25,6.44,5.85,8.08,2.34,1.08,4,8.4,2.45,11.33-2.21,4.15.21,5.06,3.39,5.35a56.68,56.68,0,0,1,13.33,2.66c5,1.67,11.14,0,16.75-.62,9.42-1,12.7,2.24,10.47,11.67-2.86,12.06-6.24,24-9.35,36a20.92,20.92,0,0,0,0,3.88c2.35-2,4-3.41,5.74-4.77,3.2-2.49,5.72-1.89,7.74,1.65s-.31,5.27-2.71,6.88c-3.43,2.3-7.12,4.24-10.43,6.69-1.3,1-1.91,2.88-2.78,4.39a25.32,25.32,0,0,1-4.41,6.22c.62-6.46-4.38-9-7.62-12.36-2.3-2.37-2.52-4.28-1.24-7,3.53-7.53,7.27-15,10.3-22.71,2.23-5.67,3.58-11.71,5.13-17.64.77-2.93-.31-4.6-3.67-3.8l-.48.12c-4.38.9-10.66.34-12.71,3-3.52,4.62-5.06,11.13-6.22,17.08-1.38,7.15-1.58,14.54-2.11,21.85-.24,3.26-.75,6.73,3.66,8.27.78.27.3,3.22,1.17,4.33A96.53,96.53,0,0,0,114,112.29c4.73,4.39,4.94,4.94-.33,9.28,2.53,3.94,5,8,7.71,12,2.25,3.31,1.32,4.92-2.34,6.09-4.58,1.47-10.89,2.25-12.93,5.52-1.91,3.06.42,9.09,1.55,13.64,5,20.17,10.22,40.28,15.42,60.39.28,1.07.93,2.76,1.64,2.9,9.12,1.74,6.78,10.34,8.92,15.76,3.46,8.72,4.89,18.24,7.51,27.32.34,1.18,2.68,2.63,4,2.54,4.63-.34,9.34-2.69,13.3,2,.6.72,2.55.31,3.88.42ZM63.82,46.81l-.06-.09,4.16,3.76,2.93-3.27,3.59,2.32c5.3-10.89,8.63-21.59,4.29-33.2-2-5.31-5.71-5.87-9.29-1.65-1.84,2.18-3.21,2.7-5.79,1.12-4.07-2.5-6-1.34-7.41,3.36-2.47,8.25.07,15.79,3.18,23.18C60.18,44.13,62.32,45.34,63.82,46.81Zm51.92,176.65a29.82,29.82,0,0,0-.46-3.15c-6.35-22.91-12.75-45.81-19-68.73-.75-2.71-2.07-2.65-4.41-2.26A7.66,7.66,0,0,1,86.69,148c-4.15-2.94-7.1-2.14-7.66,2.82q-3.78,33.94-7.11,67.94c-.12,1.32,1.77,2.83,2.71,4.26.85,1.27,2.56,2.69,2.39,3.8-1.75,11.31-3.61,22.6-5.85,33.81-1.26,6.36.52,9.15,7,9.2q21.68.15,43.36.19c5.76,0,6.3-.72,4.15-6-4.43-10.94-9.1-21.78-13.42-32.75C111.06,228.1,108.61,223.84,115.74,223.46Z"/></g></g></g></g></g></svg>