<svg xmlns="http://www.w3.org/2000/svg" viewBox="0 0 176 343"><defs><style>.cls-1{fill:#fff;}</style></defs><title>Asset 14</title><g id="Layer_2" data-name="Layer 2"><g id="Layer_5" data-name="Layer 5"><g id="zS6OLb.tif"><path class="cls-1" d="M177,344H1V1H177ZM122.36,234.75c-4.42,1.65-7.87,3.34-11.52,4.22-4.78,1.15-5.24,4.09-4,7.91.8,2.51,2.61,4.81,3,7.35,2.42,17,8.64,33.57,6.29,51.2-.48,3.63,1.65,5.79,5.22,6.82a43.52,43.52,0,0,1,7.25,3.09c4.27,2.13,8.4,4.55,12.75,6.5.95.43,2.55-.59,3.86-.94-.37-1.14-.41-2.59-1.15-3.38-5.09-5.45-10.27-10.83-15.57-16.08a6,6,0,0,0-3.94-1.69c-4.17.1-5.63-2-5.7-5.8-.2-11.65-.38-23.29-.74-34.93-.17-5.38-1.07-10.91,6.13-12.65a2,2,0,0,0,1.1-1c2.24-4.28,5-8.6,6.63-12.79,2.1-5.3,1.47-12.19.41-18.1-1.3-7.26.27-13.26,3.79-19.38,1.45-2.53,1.68-5.78,2.47-8.7l-1.44-.39-5.6,2.76-6.45-29.31,1.11-.41,2.37,3.44,2.85-2.76c.43,1.14,1.35,2.36,1.19,3.42-.61,4,.79,4.75,3.78,3.62,0-2.95,0-5.34,0-7.73,0-3.93,1.29-8.42-.2-11.67-1.87-4.1-1.89-7.73-1.77-11.94.27-9.13,3.28-18.67-3.27-28-2.91,8.94,1.44,16.83,1.31,24.92a21.12,21.12,0,0,1-4.4-6.68,22.72,22.72,0,0,1,.38-19.74c1.71-3.34,1.63-5.25-.2-7.83-7.55,3-9.38,8-6.08,17.4-2.86,1.64-5.69,4.1-8.93,4.92-3.4.86-7.54,1.66-11.29-2.85,2.39-2,5-3.62,6.87-5.83s5.16-4.25,2.85-8.09c-4.91,3-7.64,1.8-8.49-3.85a100,100,0,0,1-1.39-13.46,89.14,89.14,0,0,1,1-13c.42-3.26,3.62-4.2,6.41-1.89,3.17,2.61,6.27,5.33,9.19,8.21a41.76,41.76,0,0,1,5.52,6.59c1.61,2.45,3,3.71,5.16.73a13,13,0,0,0,1.14-2.76l2.12.92c.73,3.45,1.57,6.88,2.16,10.35.63,3.63.35,7.57,1.71,10.86s4.52,5.94,6.45,9.12c1.42,2.32,2.13,5.06,3.15,7.62l1.28.16c.43-1.92,1.41-3.9,1.2-5.74-1.1-9.24-2.53-18.44-3.79-27.66-.65-4.69-2.3-9.59-1.55-14.07,1.39-8.35-1.15-12.17-8-11.29-2.83-2.44-5.26-6.14-7.27-5.92-4.09.45-6.23-.9-8-4.28-4.1,1.8-7.84,3.9-11.85,5.09-7,2.07-14,2.78-19.81-3.46-2.86-3.08-6.06-2.76-8.48.53-2.09,2.83-4.09,4.64-7.9,3.2-.92-.35-2.55.38-3.52,1.09a57.6,57.6,0,0,0-6,5.15A7.47,7.47,0,0,0,60,69c-.86,3.37-1.38,6.83-2,10.26-2.08,10.72-4.35,21.42-6.15,32.19-.82,4.87-.72,9.89-1,14.85l2.43.7c1.17-1.71,2.65-3.3,3.43-5.17,1.83-4.35,2.84-9.12,5.08-13.22,3-5.47,8.22-9.88,6.56-17.2-.16-.7,1.66-2,2.72-2.81,1.36-1.06,3.09-1.72,4.29-2.91,4-4,5.86-3.76,9,.84,1.5,2.17,2,5.21,6.41,4.93,1.61-.1,3.6,5.8,5.41,9-1.8,1-3.66,3-5.4,2.88-3.88-.23-6.68.22-7.32,4.61s1.91,6.76,5.77,8c1.92.64,3.85,1.21,5.78,1.81l-.12,1.36a23.77,23.77,0,0,1-4.59.76c-5.59-.18-11.18-.83-16.77-.76-5.16.06-6.43,3.16-4.07,7.76.95,1.85,1,4.24,1.17,6.41.41,4.74.65,9.5,1,14.26l1.48-.08c1.52-3.77,3.82-7.42,4.38-11.32.91-6.32.54-6.51,6.89-6.26a49.83,49.83,0,0,1,5.47.48c3.36.5,6.28,1.57,6.1,5.81-.19,4.58-3.65,3.91-6.58,4-5.16.19-9.95,3.65-9.84,8.46.12,5.54-3,11.37,1.06,16.78.51.7-.52,2.54-.83,3.85-1.13-.65-2.75-1-3.29-2-1.94-3.47-2.59-8.38-5.41-10.47-6.17-4.58-6.48-10.31-6-16.8a25.92,25.92,0,0,0-.08-4.49c-.25-2.68-6.17-7.76-8.47-6.57-1.74.91-3.2,4-3.25,6.23-.23,11.33-.58,22.71.36,34,.49,5.8.17,10.38-3.7,14.94-2.49,2.93-3.43,7.16-5.89,10.11-2.11,2.53-3,4.5-1.49,7.52.54,1.07.4,2.5.57,3.76l-1.06.72-1.9-4.28c-4.18,5.18-7.55,9.33-10.86,13.52-.38.49-.27,1.33-.6,1.89-2.88,4.81-5.61,9.74-8.78,14.36-3.74,5.46-7.94,10.61-11.82,16-1.66,2.31-2.7,5.55.26,6.92,2,.91,5.25-.18,7.61-1.16,1.48-.62,2.49-2.62,3.48-4.15,5.35-8.17,10.51-16.47,16-24.58q10.37-15.39,21.17-30.5a6.41,6.41,0,0,1,4.14-2.08c.57-.07,2,1.9,2,2.93a111.43,111.43,0,0,1-.79,14.85c-1,7-2.66,13.93-3.85,20.93-.55,3.2.42,5.8,3.66,7.43,1.34.68,3,2.27,3.09,3.57.46,5.13,3.88,7.86,7.5,10.6.56.42.86,1.19,2.11,3l-8-2.1c.22,10.42-2.86,20.26.13,31.41,1.3-2.76,2.05-4.36,2.81-6l1.92.54c-.67,2.82-.42,6.94-2.2,8.21-4.49,3.21-4.17,6.53-2,10.54-1.49.78-2.86,1.16-3.78,2-5.53,5.21-11,10.45-16.34,15.86-.86.88-1.48,3-1,3.9a4.18,4.18,0,0,0,3.77,1.45,67.18,67.18,0,0,0,10.19-4c4.28-2,8.3-4.64,12.63-6.57,3.56-1.59,5.12-3.88,4.72-7.75-1.78-16.9,3.73-32.61,8.51-48.31,3.42-11.23,3.94-11.22-7.24-14.7l-.48-.15c-4.45-1.25-6-3.79-5-8.61.79-4,1.29-8.54.06-12.23-2-6,1.09-11.66-.11-17.45-.14-.67.91-1.73,1.62-2.4,4.67-4.42,4.6-10.64,6.21-16.2,1.08-3.72.83-8.35,3-11.05,2.33-2.86,6.86-3.92,10.43-5.77.33,2.94,1,5.88.92,8.79-.4,10-1.57,19.94-1.53,29.91.05,10.93,1,21.86,1.84,32.77.11,1.38,1.79,2.64,2.73,4,1-1.15,2.61-2.23,2.73-3.47a72.84,72.84,0,0,0,.38-13c-1-13.69-3.1-27.31-.28-41.07,1-4.69.77-9.61,1.07-14.43.14-2.33,1.21-4.71,3.48-2.82,3.5,2.9,8.71,6.79,8.7,10.25,0,7.54.24,14.58,3.68,21.37a35.2,35.2,0,0,1,2.52,6.83c.73,2.74,1.63,5.61,1.51,8.38a26.38,26.38,0,0,1-2.12,9.21C117.88,227.49,117.65,231.47,122.36,234.75Zm-9-204.87c2.73-6.89.42-12.82-1.81-18.69-1.31-3.43-3.85-4.58-7.58-3.32-2.49.83-5.22,1-7.83,1.42C86.62,11,82.59,16.13,84,25.14c.19,1.19,1.4,2.23,2.14,3.34.89-.85,2.09-1.55,2.59-2.59s0-2.91.76-3.83a9.52,9.52,0,0,1,4.32-3.42c2.79-.8,5.83-.68,8.71-1.21,4.15-.77,7.16-.29,8,4.75C110.94,24.83,112.37,27.32,113.35,29.88ZM98.61,58.23c4.21-1.6,8.32-2.86,12.11-4.77,1.13-.57,1.33-3,2-4.53-1.59-.08-3.81-.87-4.67-.12-5.19,4.56-10.43,5-16.27,1.41a3.29,3.29,0,0,0-3,.46,2.76,2.76,0,0,0,.14,2.6C92,55,95.23,56.55,98.61,58.23Zm26.93,231.55c-.21-3.25,1.71-9.67-1-17.17C118.26,280.31,127.53,286.48,125.54,289.78Zm-4.38-23.62,2.38.88a33,33,0,0,0,1.49-4.88c0-.24-1.77-.8-2.73-1.21Z" transform="translate(-1 -1)"/><path d="M122.36,234.75c-4.71-3.28-4.48-7.26-2.49-11.87a26.38,26.38,0,0,0,2.12-9.21c.12-2.77-.78-5.64-1.51-8.38a35.2,35.2,0,0,0-2.52-6.83c-3.44-6.79-3.7-13.83-3.68-21.37,0-3.46-5.2-7.35-8.7-10.25-2.27-1.89-3.34.49-3.48,2.82-.3,4.82-.11,9.74-1.07,14.43-2.82,13.76-.74,27.38.28,41.07a72.84,72.84,0,0,1-.38,13c-.12,1.24-1.77,2.32-2.73,3.47-.94-1.32-2.62-2.58-2.73-4-.82-10.91-1.79-21.84-1.84-32.77,0-10,1.13-19.93,1.53-29.91.12-2.91-.59-5.85-.92-8.79-3.57,1.85-8.1,2.91-10.43,5.77-2.21,2.7-2,7.33-3,11.05-1.61,5.56-1.54,11.78-6.21,16.2-.71.67-1.76,1.73-1.62,2.4,1.2,5.79-1.9,11.45.11,17.45,1.23,3.69.73,8.27-.06,12.23-1,4.82.56,7.36,5,8.61l.48.15c11.18,3.48,10.66,3.47,7.24,14.7-4.78,15.7-10.29,31.41-8.51,48.31.4,3.87-1.16,6.16-4.72,7.75-4.33,1.93-8.35,4.52-12.63,6.57a67.18,67.18,0,0,1-10.19,4,4.18,4.18,0,0,1-3.77-1.45c-.49-.89.13-3,1-3.9,5.32-5.41,10.81-10.65,16.34-15.86.92-.86,2.29-1.24,3.78-2-2.19-4-2.51-7.33,2-10.54,1.78-1.27,1.53-5.39,2.2-8.21l-1.92-.54c-.76,1.6-1.51,3.2-2.81,6-3-11.15.09-21-.13-31.41l8,2.1c-1.25-1.84-1.55-2.61-2.11-3-3.62-2.74-7-5.47-7.5-10.6-.11-1.3-1.75-2.89-3.09-3.57-3.24-1.63-4.21-4.23-3.66-7.43,1.19-7,2.85-13.92,3.85-20.93A111.43,111.43,0,0,0,62.66,195c0-1-1.45-3-2-2.93a6.41,6.41,0,0,0-4.14,2.08q-10.77,15.12-21.17,30.5c-5.46,8.11-10.62,16.41-16,24.58-1,1.53-2,3.53-3.48,4.15-2.36,1-5.63,2.07-7.61,1.16-3-1.37-1.92-4.61-.26-6.92,3.88-5.37,8.08-10.52,11.82-16,3.17-4.62,5.9-9.55,8.78-14.36.33-.56.22-1.4.6-1.89,3.31-4.19,6.68-8.34,10.86-13.52l1.9,4.28,1.06-.72c-.17-1.26,0-2.69-.57-3.76-1.53-3-.62-5,1.49-7.52,2.46-3,3.4-7.18,5.89-10.11,3.87-4.56,4.19-9.14,3.7-14.94-.94-11.26-.59-22.64-.36-34,0-2.18,1.51-5.32,3.25-6.23,2.3-1.19,8.22,3.89,8.47,6.57A25.92,25.92,0,0,1,65,140c-.53,6.49-.22,12.22,6,16.8,2.82,2.09,3.47,7,5.41,10.47.54,1,2.16,1.34,3.29,2,.31-1.31,1.34-3.15.83-3.85-4-5.41-.94-11.24-1.06-16.78-.11-4.81,4.68-8.27,9.84-8.46,2.93-.11,6.39.56,6.58-4,.18-4.24-2.74-5.31-6.1-5.81a49.83,49.83,0,0,0-5.47-.48c-6.35-.25-6-.06-6.89,6.26-.56,3.9-2.86,7.55-4.38,11.32l-1.48.08c-.31-4.76-.55-9.52-1-14.26-.19-2.17-.22-4.56-1.17-6.41-2.36-4.6-1.09-7.7,4.07-7.76,5.59-.07,11.18.58,16.77.76a23.77,23.77,0,0,0,4.59-.76l.12-1.36c-1.93-.6-3.86-1.17-5.78-1.81-3.86-1.27-6.43-3.52-5.77-8s3.44-4.84,7.32-4.61c1.74.11,3.6-1.85,5.4-2.88-1.81-3.16-3.8-9.06-5.41-9-4.45.28-4.91-2.76-6.41-4.93-3.18-4.6-5-4.81-9-.84-1.2,1.19-2.93,1.85-4.29,2.91-1.06.82-2.88,2.11-2.72,2.81,1.66,7.32-3.56,11.73-6.56,17.2-2.24,4.1-3.25,8.87-5.08,13.22-.78,1.87-2.26,3.46-3.43,5.17l-2.43-.7c.32-5,.22-10,1-14.85,1.8-10.77,4.07-21.47,6.15-32.19.66-3.43,1.18-6.89,2-10.26a7.47,7.47,0,0,1,2.22-3.13,57.6,57.6,0,0,1,6-5.15c1-.71,2.6-1.44,3.52-1.09,3.81,1.44,5.81-.37,7.9-3.2,2.42-3.29,5.62-3.61,8.48-.53,5.78,6.24,12.77,5.53,19.81,3.46,4-1.19,7.75-3.29,11.85-5.09,1.76,3.38,3.9,4.73,8,4.28,2-.22,4.44,3.48,7.27,5.92,6.82-.88,9.36,2.94,8,11.29-.75,4.48.9,9.38,1.55,14.07,1.26,9.22,2.69,18.42,3.79,27.66.21,1.84-.77,3.82-1.2,5.74l-1.28-.16c-1-2.56-1.73-5.3-3.15-7.62-1.93-3.18-5.07-5.77-6.45-9.12s-1.08-7.23-1.71-10.86c-.59-3.47-1.43-6.9-2.16-10.35l-2.12-.92a13,13,0,0,1-1.14,2.76c-2.13,3-3.55,1.72-5.16-.73a41.76,41.76,0,0,0-5.52-6.59c-2.92-2.88-6-5.6-9.19-8.21-2.79-2.31-6-1.37-6.41,1.89a89.14,89.14,0,0,0-1,13,100,100,0,0,0,1.39,13.46c.85,5.65,3.58,6.83,8.49,3.85,2.31,3.84-1,5.91-2.85,8.09s-4.48,3.84-6.87,5.83c3.75,4.51,7.89,3.71,11.29,2.85,3.24-.82,6.07-3.28,8.93-4.92-3.3-9.4-1.47-14.4,6.08-17.4,1.83,2.58,1.91,4.49.2,7.83a22.72,22.72,0,0,0-.38,19.74,21.12,21.12,0,0,0,4.4,6.68c.13-8.09-4.22-16-1.31-24.92,6.55,9.36,3.54,18.9,3.27,28-.12,4.21-.1,7.84,1.77,11.94,1.49,3.25.23,7.74.2,11.67,0,2.39,0,4.78,0,7.73-3,1.13-4.39.35-3.78-3.62.16-1.06-.76-2.28-1.19-3.42l-2.85,2.76-2.37-3.44-1.11.41,6.45,29.31,5.6-2.76,1.44.39c-.79,2.92-1,6.17-2.47,8.7-3.52,6.12-5.09,12.12-3.79,19.38,1.06,5.91,1.69,12.8-.41,18.1-1.66,4.19-4.39,8.51-6.63,12.79a2,2,0,0,1-1.1,1c-7.2,1.74-6.3,7.27-6.13,12.65.36,11.64.54,23.28.74,34.93.07,3.8,1.53,5.9,5.7,5.8a6,6,0,0,1,3.94,1.69c5.3,5.25,10.48,10.63,15.57,16.08.74.79.78,2.24,1.15,3.38-1.31.35-2.91,1.37-3.86.94-4.35-1.95-8.48-4.37-12.75-6.5a43.52,43.52,0,0,0-7.25-3.09c-3.57-1-5.7-3.19-5.22-6.82,2.35-17.63-3.87-34.18-6.29-51.2-.37-2.54-2.18-4.84-3-7.35-1.21-3.82-.75-6.76,4-7.91C114.49,238.09,117.94,236.4,122.36,234.75ZM96.63,143.39c6.52,1.75,9.79-3.62,14.47-8.08v6.28c2.3,0,4.23-.07,6.17,0,2.72.12,5.91,1.38,7.11-2.46,1-3.08-2.21-9.6-5-9.86a90.94,90.94,0,0,0-13.81-.14,5.58,5.58,0,0,0-4,2.49C99.77,135.15,98.47,138.93,96.63,143.39Zm-30,27.26a12,12,0,0,0-1.54.66c-8.93,5.41-9.5,9-2.29,16.64.84.88,3.36,1.46,4.15.88C71.62,185.45,71.46,174.55,66.67,170.65Zm28-91.3c1.7-2.32,3-3.62,3.61-5.2.18-.47-2-2.55-2.25-2.41a14.31,14.31,0,0,0-4.18,3.51C91.59,75.54,93.13,77.21,94.64,79.35Z" transform="translate(-1 -1)"/><path d="M113.35,29.88c-1-2.56-2.41-5.05-2.85-7.7-.85-5-3.86-5.52-8-4.75-2.88.53-5.92.41-8.71,1.21a9.52,9.52,0,0,0-4.32,3.42c-.71.92-.21,2.69-.76,3.83s-1.7,1.74-2.59,2.59c-.74-1.11-2-2.15-2.14-3.34-1.38-9,2.65-14.17,12.16-15.85,2.61-.46,5.34-.59,7.83-1.42,3.73-1.26,6.27-.11,7.58,3.32C113.77,17.06,116.08,23,113.35,29.88Z" transform="translate(-1 -1)"/><path d="M98.61,58.23C95.23,56.55,92,55,88.92,53.28a2.76,2.76,0,0,1-.14-2.6,3.29,3.29,0,0,1,3-.46c5.84,3.62,11.08,3.15,16.27-1.41.86-.75,3.08,0,4.67.12-.62,1.56-.82,4-2,4.53C106.93,55.37,102.82,56.63,98.61,58.23Z" transform="translate(-1 -1)"/><path d="M125.54,289.78c2-3.3-7.28-9.47-1-17.17C127.25,280.11,125.33,286.53,125.54,289.78Z" transform="translate(-1 -1)"/><path d="M121.16,266.16,122.3,261c1,.41,2.77,1,2.73,1.21a33,33,0,0,1-1.49,4.88Z" transform="translate(-1 -1)"/><path class="cls-1" d="M96.63,143.39c1.84-4.46,3.14-8.24,5-11.75a5.58,5.58,0,0,1,4-2.49,90.94,90.94,0,0,1,13.81.14c2.81.26,6,6.78,5,9.86-1.2,3.84-4.39,2.58-7.11,2.46-1.94-.09-3.87,0-6.17,0v-6.28C106.42,139.77,103.15,145.14,96.63,143.39Z" transform="translate(-1 -1)"/><path class="cls-1" d="M66.67,170.65c4.79,3.9,5,14.8.32,18.18-.79.58-3.31,0-4.15-.88-7.21-7.6-6.64-11.23,2.29-16.64A12,12,0,0,1,66.67,170.65Z" transform="translate(-1 -1)"/><path class="cls-1" d="M94.64,79.35c-1.51-2.14-3-3.81-2.82-4.1A14.31,14.31,0,0,1,96,71.74c.24-.14,2.43,1.94,2.25,2.41C97.63,75.73,96.34,77,94.64,79.35Z" transform="translate(-1 -1)"/></g></g></g></svg>