<svg xmlns="http://www.w3.org/2000/svg" viewBox="0 0 187.16 343.17"><defs><style>.cls-1{fill:#fff;}</style></defs><title>Asset 11</title><g id="Layer_2" data-name="Layer 2"><g id="Layer_5" data-name="Layer 5"><g id="_1hI46R.tif" data-name="1hI46R.tif"><path class="cls-1" d="M187.6,172.5q0,84,.08,168c0,3-.6,3.59-3.58,3.58q-90-.16-180,0c-3,0-3.58-.6-3.58-3.58q.15-168,0-336c0-3,.6-3.59,3.58-3.58q90,.16,180,0c3,0,3.59.6,3.58,3.58Q187.52,88.5,187.6,172.5ZM143.39,69.74l.11.11A9.07,9.07,0,0,0,129.9,64c-2,1.25-3.2,2-3.4-1.21-.07-1.17-.26-2.53-2.08-1.79-3.76,1.51-7.5,3.06-11.26,4.56a10.42,10.42,0,0,1-3.31,1.07A3.81,3.81,0,0,1,107,65.49a3.35,3.35,0,0,1,.15-3.09c1.35-1.87,3.21-3.37,4.66-5.19a34.3,34.3,0,0,0,4-6c2.62-5.35,4.51-10.94,4.52-17,0-5.64.25-11.28.23-16.92A9.64,9.64,0,0,0,119.4,14c-2.1-5-7.22-5.64-11.39-7.3-7.43-2.94-17.69,2.81-20.81,10-2.72,6.24-1.36,12.27-.22,18,1.11,5.59-.52,9.08-3.92,13-4.14,4.72-7.63,10-11.51,14.94-1.19,1.52-2.49,3.24-4.15,4-5.75,2.83-10.63,6.49-13.77,12.22a14.39,14.39,0,0,1-2.49,3.7c-2.39,2.21-2.25,4.77-1.18,7.32,1.16,2.76,3.55,1.6,5.66,1.4,5.46-.53,9.49,3.31,9.85,8.67a42.82,42.82,0,0,0,2,9.18c.51,1.7,1.47,3.43-.83,4-.89.23-2.26-1.18-3.33-2a22.42,22.42,0,0,1-2.15-2c-.36,1-1.28,2.24-1,3,.75,2,1.07,4-1.41,4.2a5,5,0,0,1-3.89-2.82,61.32,61.32,0,0,1-2.07-12.18c-.12-1.66,1.18-3.42,1.86-5.18-5.13-2-5.76-1.77-6,2.85-.8,14.11-1.11,28.26-2.35,42.34a79.22,79.22,0,0,1-4.56,19.83c-1.48,4.06-2.56,7.37-.12,11.24a11.23,11.23,0,0,1,1.28,4.27c.82,5.56-.51,6.81-5.68,5-2.76-.95-5.22-.53-6.65,1.65-1.67,2.55.51,4.09,2.49,5.6,4.1,3.11,8.09,6.38,12,9.7,3.65,3.09,6.57,6.87,12,7.65,6.44,1,9.46,6.33,8.23,12.81-.43,2.28-.45,4.63-.72,6.94-1.68,14.05-3.4,28.08-5.06,42.12-.38,3.3-.75,6.62-.86,9.93-.18,5.49-.29,11-.17,16.48.09,4.26-1,8.63,1.08,12.79a3.37,3.37,0,0,1-.7,3,32.23,32.23,0,0,1-5.5,5c-2.87,2-6.11,3.41-8.94,5.44-1.18.85-1.71,2.61-2.53,4,1.5.8,2.94,2.13,4.5,2.29,10.25,1,18.46-3.36,25.32-10.48a6.49,6.49,0,0,1,6.1-2.26c7.4.88,11.74-3.56,10.93-11a33.4,33.4,0,0,1-.54-5.42q1.16-20.94,2.55-41.85c.12-1.8,1.06-3.53,1.62-5.3,1.31,1.43,2.63,2.86,3.94,4.3a1,1,0,0,1,.19.45c1.43,6.73,6.46,10.73,11.44,14.6a7.52,7.52,0,0,1,3.27,7.64c-.73,6.78-.95,13.62-1.44,20.43-.29,4.06.73,7.13,5,8.68a5.89,5.89,0,0,1,3.16,3.37c1.18,3.89,4.49,6,7.48,5.42,5.86-1.2,8.79,2.26,12.28,5.42a19.19,19.19,0,0,0,4.44,3.2c5.24,2.5,10.46,5.51,16.6,3.69,1.26-.38,2.86-1.51,3.15-2.6.24-.92-.94-2.57-1.92-3.4-5.69-4.81-11.55-9.42-17.26-14.21-2.86-2.4-2.55-4.27.75-6,4.61-2.41,4.78-3.14,3.25-8.31-1.08-3.65-1.85-7.41-2.65-11.14-.6-2.78.62-4.25,3.39-5.07a35.17,35.17,0,0,0,8.22-3.51c7.27-4.43,13.24-10.06,15.3-18.77a13,13,0,0,0,.09-2.73,18.43,18.43,0,0,0-2.8,1.43c-.49.35-.63,1.15-1,1.69-5.1,7-11,12.91-19.92,14.81-5.06,1.08-6.07.42-7.06-4.81-.84-4.41-1.35-8.93-2.59-13.23a77.26,77.26,0,0,1-2.87-21.7c0-8.83-.11-17.67-.64-26.47-.52-8.62-1.47-17.22-2.52-25.79-.67-5.53-1.32-10.78,0-16.51,1.94-8.18,2.31-16.72,3.46-25.1a16.29,16.29,0,0,1,1.48-4.75c.34-.73,1.39-1.13,2.12-1.68.49.88,1.43,1.79,1.38,2.64-.15,2.83-.65,5.52,1.53,8,.55.63-.16,2.74-.79,3.9a21.9,21.9,0,0,1-3.14,3.84c-2.87,3.19-3.2,6.56-1.67,10.62a127.71,127.71,0,0,1,3.76,13.43c1.31,5.12,2.54,10.26,3.76,15.4a40.31,40.31,0,0,1,1.13,5.73c.17,2-.15,4,0,6,.14,2.26,1.57,3.19,3.76,2.95,3.55-.39,8.19-7.12,6.62-10.2-1.12-2.21-1.26-3.5.32-5.52,1-1.29,1.07-3.44,1.23-5.24.45-5,.78-10,1.06-14.95.31-5.49.6-11,.75-16.47.15-5.9-1.58-7.8-7.18-8.3a22.65,22.65,0,0,1-2.27-.43c1.27-1.6,2.77-2.81,4.34-2.93,2.86-.2,3.22-1.66,3.07-4-.29-4.47-.46-8.95-.67-13.43-.31-6.86,1-13.82-2.8-20.39-1.45-2.5-1.68-5.09-5.42-3.72-.23.08-1.39-1.57-1.33-1.63a17.56,17.56,0,0,1,3.63-3.12c.82-.45,2.9,1.53,2.59-1.13-.07-.58-1.93-1-3-1.37-.45-.16-1.06.08-1.48-.12a14.26,14.26,0,0,1-1.93-1.31,10.06,10.06,0,0,1,1.34-1.85c1.24-1.09,2.67-2,3.89-3.09,2.35-2.17,2.13-4.34-.3-6.55A6.36,6.36,0,0,1,148.7,74C148.15,70.85,146.09,70,143.39,69.74Z" transform="translate(-0.52 -0.92)"/><path d="M143.39,69.74c2.7.24,4.76,1.11,5.31,4.24a6.36,6.36,0,0,0,2.11,3.1c2.43,2.21,2.65,4.38.3,6.55-1.22,1.12-2.65,2-3.89,3.09a10.06,10.06,0,0,0-1.34,1.85,14.26,14.26,0,0,0,1.93,1.31c.42.2,1,0,1.48.12,1.06.38,2.92.79,3,1.37.31,2.66-1.77.68-2.59,1.13a17.56,17.56,0,0,0-3.63,3.12c-.06.06,1.1,1.71,1.33,1.63,3.74-1.37,4,1.22,5.42,3.72,3.82,6.57,2.49,13.53,2.8,20.39.21,4.48.38,9,.67,13.43.15,2.32-.21,3.78-3.07,4-1.57.12-3.07,1.33-4.34,2.93a22.65,22.65,0,0,0,2.27.43c5.6.5,7.33,2.4,7.18,8.3-.15,5.49-.44,11-.75,16.47-.28,5-.61,10-1.06,14.95-.16,1.8-.22,4-1.23,5.24-1.58,2-1.44,3.31-.32,5.52,1.57,3.08-3.07,9.81-6.62,10.2-2.19.24-3.62-.69-3.76-2.95-.11-2,.21-4,0-6a40.31,40.31,0,0,0-1.13-5.73c-1.22-5.14-2.45-10.28-3.76-15.4A127.71,127.71,0,0,0,136,159.31c-1.53-4.06-1.2-7.43,1.67-10.62a21.9,21.9,0,0,0,3.14-3.84c.63-1.16,1.34-3.27.79-3.9-2.18-2.51-1.68-5.2-1.53-8,.05-.85-.89-1.76-1.38-2.64-.73.55-1.78.95-2.12,1.68a16.29,16.29,0,0,0-1.48,4.75c-1.15,8.38-1.52,16.92-3.46,25.1-1.36,5.73-.71,11,0,16.51,1.05,8.57,2,17.17,2.52,25.79.53,8.8.65,17.64.64,26.47a77.26,77.26,0,0,0,2.87,21.7c1.24,4.3,1.75,8.82,2.59,13.23,1,5.23,2,5.89,7.06,4.81,8.9-1.9,14.82-7.81,19.92-14.81.39-.54.53-1.34,1-1.69a18.43,18.43,0,0,1,2.8-1.43,13,13,0,0,1-.09,2.73c-2.06,8.71-8,14.34-15.3,18.77a35.17,35.17,0,0,1-8.22,3.51c-2.77.82-4,2.29-3.39,5.07.8,3.73,1.57,7.49,2.65,11.14,1.53,5.17,1.36,5.9-3.25,8.31-3.3,1.73-3.61,3.6-.75,6,5.71,4.79,11.57,9.4,17.26,14.21,1,.83,2.16,2.48,1.92,3.4-.29,1.09-1.89,2.22-3.15,2.6-6.14,1.82-11.36-1.19-16.6-3.69a19.19,19.19,0,0,1-4.44-3.2c-3.49-3.16-6.42-6.62-12.28-5.42-3,.62-6.3-1.53-7.48-5.42A5.89,5.89,0,0,0,114.7,307c-4.28-1.55-5.3-4.62-5-8.68.49-6.81.71-13.65,1.44-20.43a7.52,7.52,0,0,0-3.27-7.64c-5-3.87-10-7.87-11.44-14.6a1,1,0,0,0-.19-.45c-1.31-1.44-2.63-2.87-3.94-4.3-.56,1.77-1.5,3.5-1.62,5.3q-1.42,20.91-2.55,41.85a33.4,33.4,0,0,0,.54,5.42c.81,7.4-3.53,11.84-10.93,11a6.49,6.49,0,0,0-6.1,2.26c-6.86,7.12-15.07,11.5-25.32,10.48-1.56-.16-3-1.49-4.5-2.29.82-1.34,1.35-3.1,2.53-4,2.83-2,6.07-3.47,8.94-5.44a32.23,32.23,0,0,0,5.5-5,3.37,3.37,0,0,0,.7-3c-2.07-4.16-1-8.53-1.08-12.79-.12-5.49,0-11,.17-16.48.11-3.31.48-6.63.86-9.93,1.66-14,3.38-28.07,5.06-42.12.27-2.31.29-4.66.72-6.94,1.23-6.48-1.79-11.86-8.23-12.81-5.39-.78-8.31-4.56-12-7.65-3.93-3.32-7.92-6.59-12-9.7-2-1.51-4.16-3-2.49-5.6,1.43-2.18,3.89-2.6,6.65-1.65,5.17,1.77,6.5.52,5.68-5a11.23,11.23,0,0,0-1.28-4.27c-2.44-3.87-1.36-7.18.12-11.24a79.22,79.22,0,0,0,4.56-19.83c1.24-14.08,1.55-28.23,2.35-42.34.27-4.62.9-4.8,6-2.85-.68,1.76-2,3.52-1.86,5.18a61.32,61.32,0,0,0,2.07,12.18,5,5,0,0,0,3.89,2.82c2.48-.21,2.16-2.19,1.41-4.2-.29-.78.63-2,1-3a22.42,22.42,0,0,0,2.15,2c1.07.77,2.44,2.18,3.33,2,2.3-.6,1.34-2.33.83-4a42.82,42.82,0,0,1-2-9.18c-.36-5.36-4.39-9.2-9.85-8.67-2.11.2-4.5,1.36-5.66-1.4-1.07-2.55-1.21-5.11,1.18-7.32a14.39,14.39,0,0,0,2.49-3.7c3.14-5.73,8-9.39,13.77-12.22,1.66-.81,3-2.53,4.15-4,3.88-5,7.37-10.22,11.51-14.94,3.4-3.88,5-7.37,3.92-13-1.14-5.76-2.5-11.79.22-18,3.12-7.16,13.38-12.91,20.81-10C112.18,8.37,117.3,9,119.4,14a9.64,9.64,0,0,1,1.15,3.24c0,5.64-.22,11.28-.23,16.92,0,6.09-1.9,11.68-4.52,17a34.3,34.3,0,0,1-4,6c-1.45,1.82-3.31,3.32-4.66,5.19a3.35,3.35,0,0,0-.15,3.09,3.81,3.81,0,0,0,2.89,1.09,10.42,10.42,0,0,0,3.31-1.07c3.76-1.5,7.5-3.05,11.26-4.56,1.82-.74,2,.62,2.08,1.79.2,3.22,1.42,2.46,3.4,1.21a9.07,9.07,0,0,1,13.6,5.9A23.87,23.87,0,0,0,140,72.62q-8.89,10.32-17.62,20.81c-.44.52-.44,1.42-.94,3.22,2.13-1.58,3.63-2.32,4.63-3.49q8.37-9.76,16.48-19.76C143.26,72.53,143.13,71,143.39,69.74ZM100.61,241.82c1.82,5.62,3.59,11.63,5.79,17.48.44,1.18,2.46,1.76,3.76,2.61.25-1.42.58-2.83.71-4.26a9.35,9.35,0,0,0-.41-1.94c-.75-6.25-1.56-12.49-2.16-18.75-.25-2.57.69-4.4,3.73-4.9a4.11,4.11,0,0,0,2.49-3c.75-7.49,1.25-15,1.7-22.53.14-2.3-.15-4.64-.23-7-.12-3.67,1.26-4.56,4.7-3.12.65.27,1.7.54,2.11.22,1.7-1.3.84-7.74-1.29-8.29-3.35-.86-4.07-3.08-4.14-5.91-.06-2.45,0-4.91.11-7.37,0-1.73.12-3.67-2.29-3.56-4.46.22-8.92.58-13.34,1.15-4,.52-7.95,2.18-11.69-1.18-.82-.74-3.19-.7-4.17,0-.68.47-.45,2.68-.18,4a31.3,31.3,0,0,0,1.72,4.64c.62,1.67-.49,4.44,2.33,4.52.48,0,1.07-3.36,1.56-5.18.08-.29-.16-.69-.07-1A12.38,12.38,0,0,1,92.1,177c.41.45,1.2.95,1.15,1.34-.47,3.42-.72,6.95-1.77,10.2a11.65,11.65,0,0,0,.53,9.15c.87,1.78,2.06,3.42,2.92,5.21,2.75,5.74,6.22,11.19,5.46,18.11-.2,1.83,1,4.06,2,5.72,1.65,2.48,2.07,4.61.63,7.37C102,236.19,101.57,238.69,100.61,241.82ZM65.17,119l-1,.17a20.86,20.86,0,0,0-.67,3.27c-.42,9-.74,18-1.19,26.94a16.08,16.08,0,0,1-1,5.31c-2.16,5.11-2.3,5.44,2.11,9,2.39,1.93,2.57,3.44,1.3,6.32-1.92,4.33-2.9,9.07-4.17,13.67-.73,2.64-1.3,5.33-1.82,8a4.11,4.11,0,0,0,.09,2.68A24.3,24.3,0,0,0,62.64,199c.76.69,2.46,1.41,3,1a5.16,5.16,0,0,0,1.72-3.23q1.05-6.37,1.71-12.81c.58-5.62,2-11.37,1.28-16.86a224.43,224.43,0,0,1-1.68-33.37A26.57,26.57,0,0,0,65.17,119ZM113,18.85l-.16-.82c-2.7,0-5.4.08-8.09,0-3-.11-5.94-.45-8.91-.55-.49,0-1,.7-1.49,1.08A6.94,6.94,0,0,0,95.52,20c.37.27,1,.19,1.43.37,3,1.18,4.8,3.77,4.55,6.36-.3,3.22-2.7,3.36-5.1,3.43-2.13.06-2.89,1.42-3.07,3.22a32.87,32.87,0,0,0-.18,5.43c.15,1.92,1.31,2.61,3.09,1.62.54-.31.9-1,1.37-1.41,4.6-4.42,7.41-4.29,11.31.51a17.44,17.44,0,0,0,2,2.22,20,20,0,0,0,2.34,1.59,11.59,11.59,0,0,0,1.1-3.11c.12-2.45-.5-5,0-7.34.63-2.92-.56-3.36-2.77-2.79A7.6,7.6,0,0,0,108.24,32c-1.6,1.58-2.16.89-2.59-.82-1.05-4.28,0-7.13,3.82-9.81C110.65,20.49,111.84,19.68,113,18.85ZM97.51,69.47c3.23-7.15-.32-11.11-4.67-14.73a2.31,2.31,0,0,0-2-.39,4.62,4.62,0,0,0-.08,7.79,14.71,14.71,0,0,1,2.74,2.67C94.77,66.22,96,67.7,97.51,69.47Zm39.08,50.75-1.12.43c.33,1.94.59,3.89,1,5.81.11.51.73.9,1.12,1.35.42-.48,1-.88,1.22-1.43,1.79-5.32.3-10.55-.85-15.67-.48-2.14-2.79-1.2-4.27-.56-1.85.81-1,1.89-.27,3.18C134.66,115.53,135.56,117.91,136.59,120.22ZM87.93,104.78l.77,1.49a10.43,10.43,0,0,0,2-1.77c.81-1.18,1.36-2.54,2.09-3.78.48-.82,1.71-2,1.51-2.29a9.22,9.22,0,0,0-3-3c-.41-.25-2.11.53-2.23,1.07C88.53,98.88,88.36,101.34,87.93,104.78Zm50.65-6.65c-.27-.59-.49-1.4-.65-1.39a2.54,2.54,0,0,0-1.55.63q-4.62,5.07-9.12,10.24c-.33.39-.31,1.08-.45,1.64.59,0,1.43.28,1.74,0q4.59-4.39,9-9A7.49,7.49,0,0,0,138.58,98.13ZM115.08,113a12.19,12.19,0,0,0,2.11-.24,33.68,33.68,0,0,0,4.41-1.86c.15-.07-.29-2-.63-2.1a33.7,33.7,0,0,0-5.23-.25,1.26,1.26,0,0,0-.9.39c-.78.92-1.5,1.9-2.24,2.85Zm-8.17-21.2a39.84,39.84,0,0,0-1.59,6c-.11,1,.83,2.13,1.29,3.21l5-3.74c-.74-.8-1.53-1.56-2.23-2.39C108.5,93.85,107.7,92.78,106.91,91.78Z" transform="translate(-0.52 -0.92)"/><path class="cls-1" d="M100.61,241.82c1-3.13,1.35-5.63,2.46-7.76,1.44-2.76,1-4.89-.63-7.37-1.1-1.66-2.25-3.89-2-5.72.76-6.92-2.71-12.37-5.46-18.11-.86-1.79-2.05-3.43-2.92-5.21a11.65,11.65,0,0,1-.53-9.15c1-3.25,1.3-6.78,1.77-10.2,0-.39-.74-.89-1.15-1.34a12.38,12.38,0,0,0-.75,1.56c-.09.29.15.69.07,1-.49,1.82-1.08,5.19-1.56,5.18-2.82-.08-1.71-2.85-2.33-4.52a31.3,31.3,0,0,1-1.72-4.64c-.27-1.34-.5-3.55.18-4,1-.67,3.35-.71,4.17,0,3.74,3.36,7.68,1.7,11.69,1.18,4.42-.57,8.88-.93,13.34-1.15,2.41-.11,2.33,1.83,2.29,3.56-.06,2.46-.17,4.92-.11,7.37.07,2.83.79,5,4.14,5.91,2.13.55,3,7,1.29,8.29-.41.32-1.46.05-2.11-.22-3.44-1.44-4.82-.55-4.7,3.12.08,2.32.37,4.66.23,7-.45,7.52-1,15-1.7,22.53a4.11,4.11,0,0,1-2.49,3c-3,.5-4,2.33-3.73,4.9.6,6.26,1.41,12.5,2.16,18.75a9.35,9.35,0,0,1,.41,1.94c-.13,1.43-.46,2.84-.71,4.26-1.3-.85-3.32-1.43-3.76-2.61C104.2,253.45,102.43,247.44,100.61,241.82Z" transform="translate(-0.52 -0.92)"/><path class="cls-1" d="M65.17,119a26.57,26.57,0,0,1,3.49,14.72,224.43,224.43,0,0,0,1.68,33.37c.67,5.49-.7,11.24-1.28,16.86q-.66,6.44-1.71,12.81A5.16,5.16,0,0,1,65.63,200c-.53.37-2.23-.35-3-1a24.3,24.3,0,0,1-3.85-4.55,4.11,4.11,0,0,1-.09-2.68c.52-2.7,1.09-5.39,1.82-8,1.27-4.6,2.25-9.34,4.17-13.67,1.27-2.88,1.09-4.39-1.3-6.32-4.41-3.57-4.27-3.9-2.11-9a16.08,16.08,0,0,0,1-5.31c.45-9,.77-18,1.19-26.94a20.86,20.86,0,0,1,.67-3.27Z" transform="translate(-0.52 -0.92)"/><path class="cls-1" d="M113,18.85c-1.18.83-2.37,1.64-3.55,2.48-3.78,2.68-4.87,5.53-3.82,9.81.43,1.71,1,2.4,2.59.82a7.6,7.6,0,0,1,3.33-1.91c2.21-.57,3.4-.13,2.77,2.79-.5,2.34.12,4.89,0,7.34a11.59,11.59,0,0,1-1.1,3.11,20,20,0,0,1-2.34-1.59,17.44,17.44,0,0,1-2-2.22c-3.9-4.8-6.71-4.93-11.31-.51-.47.46-.83,1.1-1.37,1.41-1.78,1-2.94.3-3.09-1.62a32.87,32.87,0,0,1,.18-5.43c.18-1.8.94-3.16,3.07-3.22,2.4-.07,4.8-.21,5.1-3.43.25-2.59-1.6-5.18-4.55-6.36-.45-.18-1.06-.1-1.43-.37a6.94,6.94,0,0,1-1.15-1.41c.5-.38,1-1.09,1.49-1.08,3,.1,5.94.44,8.91.55,2.69.1,5.39,0,8.09,0Z" transform="translate(-0.52 -0.92)"/><path class="cls-1" d="M97.51,69.47c-1.52-1.77-2.74-3.25-4-4.66a14.71,14.71,0,0,0-2.74-2.67,4.62,4.62,0,0,1,.08-7.79,2.31,2.31,0,0,1,2,.39C97.19,58.36,100.74,62.32,97.51,69.47Z" transform="translate(-0.52 -0.92)"/><path class="cls-1" d="M143.39,69.74c-.26,1.23-.13,2.79-.83,3.66q-8.09,10-16.48,19.76c-1,1.17-2.5,1.91-4.63,3.49.5-1.8.5-2.7.94-3.22Q131.14,83,140,72.62a23.87,23.87,0,0,1,3.49-2.77Z" transform="translate(-0.52 -0.92)"/><path class="cls-1" d="M136.59,120.22c-1-2.31-1.93-4.69-3.14-6.89-.71-1.29-1.58-2.37.27-3.18,1.48-.64,3.79-1.58,4.27.56,1.15,5.12,2.64,10.35.85,15.67-.18.55-.8,1-1.22,1.43-.39-.45-1-.84-1.12-1.35-.44-1.92-.7-3.87-1-5.81Z" transform="translate(-0.52 -0.92)"/><path class="cls-1" d="M87.93,104.78c.43-3.44.6-5.9,1.13-8.27.12-.54,1.82-1.32,2.23-1.07a9.22,9.22,0,0,1,3,3c.2.33-1,1.47-1.51,2.29-.73,1.24-1.28,2.6-2.09,3.78a10.43,10.43,0,0,1-2,1.77Z" transform="translate(-0.52 -0.92)"/><path class="cls-1" d="M138.58,98.13a7.49,7.49,0,0,1-1,2.13q-4.41,4.58-9,9c-.31.29-1.15,0-1.74,0,.14-.56.12-1.25.45-1.64q4.5-5.17,9.12-10.24a2.54,2.54,0,0,1,1.55-.63C138.09,96.73,138.31,97.54,138.58,98.13Z" transform="translate(-0.52 -0.92)"/><path class="cls-1" d="M115.08,113l-2.48-1.21c.74-1,1.46-1.93,2.24-2.85a1.26,1.26,0,0,1,.9-.39,33.7,33.7,0,0,1,5.23.25c.34,0,.78,2,.63,2.1a33.68,33.68,0,0,1-4.41,1.86A12.19,12.19,0,0,1,115.08,113Z" transform="translate(-0.52 -0.92)"/><path class="cls-1" d="M106.91,91.78c.79,1,1.59,2.07,2.45,3.09.7.83,1.49,1.59,2.23,2.39l-5,3.74c-.46-1.08-1.4-2.21-1.29-3.21A39.84,39.84,0,0,1,106.91,91.78Z" transform="translate(-0.52 -0.92)"/></g></g></g></svg>