<svg xmlns="http://www.w3.org/2000/svg" viewBox="0 0 108.05 298.92"><title>Asset 13</title><g id="Layer_2" data-name="Layer 2"><g id="Layer_5" data-name="Layer 5"><g id="HOI0FF.tif"><path d="M49.52,297.37c-7.12.56-14.27,1.82-21.36,1.5a147.71,147.71,0,0,1-24.43-3.53C2.05,295-.11,291.25,0,289.19a192.35,192.35,0,0,1,2.69-20.66c3.17-19.18,9.49-37.67,11.17-57.24,1.13-13.17,4.66-26.14,7.36-39.16,3.49-16.89,2.53-33.54-.64-50.46-3.31-17.67-5-35.72-.85-53.54.79-3.4,4.26-6.84,7.4-8.85C31,56.78,31.39,54,31.7,49.84c.79-10.57,2.44-21.09,4.17-31.56a51.48,51.48,0,0,1,4-13c1.8-3.89,5.54-5.6,10-5.18.83.08,1.66.26,2.49.26,12.45-.1,19,5.75,20,18.41.88,10.6,1.25,21.25,2.12,31.85.18,2.08,1.25,5.46,2.59,5.84,12,3.42,11.5,13.73,12.1,22.66.64,9.58-.1,19.31-.88,28.92-.77,9.4-2.56,18.73-3.45,28.13a60.88,60.88,0,0,0,.49,13.41c1.58,12.2,3.43,24.37,5.26,36.54,2.37,15.77,4.5,31.6,7.35,47.29,2.89,15.85,6.45,31.58,9.9,47.32.89,4.08-.82,6.4-4.1,8-8.57,4.31-17.8,6.33-27.26,7.21-8.95.84-17.94,1.25-26.91,1.85ZM42.43,30.1c-.25,3.84-.5,8.79,3.64,12.72.88.84.87,2.56,1.66,3.56,1.06,1.34,2.38,3.12,3.81,3.35,2.49.41,5.28.41,6.16-3.33.46-2,2-3.77,3.25-5.49,4.71-6.35,6.53-13.38,4.82-21.12-1.13-5.1-7.51-9.91-12.12-9.5-5.32.47-10.63,5.65-11.18,11.17C42.23,23.93,42.43,26.44,42.43,30.1ZM57.91,52.73c-1.66,1.89-3.14,5.05-5,5.31s-4.38-2.19-7.41-3.92C47.53,68,49.59,82,51.66,95.9l2.26-.09C57.31,81.82,59.21,67.64,57.91,52.73Zm2.17,111.08c2-2.82,3.88-4.89,5-7.33.52-1.18,0-3.39-.92-4.55-2.88-3.85-5.87-8.16-11.33-3-.68.65-2.28.25-3.35.63-3.92,1.39-5,5.58-1.74,7.93S55.15,161.38,60.08,163.81Z"/></g></g></g></svg>