<svg xmlns="http://www.w3.org/2000/svg" viewBox="0 0 215.81 236.66"><title>Asset 8</title><g id="Layer_2" data-name="Layer 2"><g id="Layer_5" data-name="Layer 5"><g id="KlTsfZ.tif"><g id="AQapoV.tif"><g id="GsciX0.tif"><path d="M69.13,218.87c-17.88-1.34-35.19-4.55-51.71-12.4-.3-.15-.63.07-.7.45-1.07,5.77,3.74,11.86-1.2,17.87a.48.48,0,0,1-.85-.17c-2.94-7.43-6.12-13.85-8-20.8C1.25,183.32.49,162,0,140.62a58.25,58.25,0,0,1,4.07-22.05A612.75,612.75,0,0,1,31.33,56a13.26,13.26,0,0,0,1.15-5.18,26.83,26.83,0,0,0-.66-5.11.64.64,0,0,1,.41-.73c1.25-.32,2.35-.57,3.42-.93,5.82-2,11.76-3.6,17.4-6.19,2.57-1.17,4.87-4,6.69-6.61,1.64-2.39,2.89-4.61,5.34-3.22a.46.46,0,0,0,.65-.25c1-2.12,1.71-4.58,3-5.27,1.5-.8,3.61.09,5.52.37a.5.5,0,0,0,.5-.29c2-3.59,2.1-3.73,4.5-3.15a.47.47,0,0,0,.52-.27C86.11,8,94,1.45,105.52.14c9.37-1.06,14.85,4,19.23,12.51,1.34,2.62,2,5.78,2.94,9a.5.5,0,0,0,.64.38,3.23,3.23,0,0,0,1.27-.66c1.68-1.7,3.12-1.69,4.38.61s2.78,2.23,4.45.76c2.36-2.09,4-1.17,6,1.23,6.34,7.59,13.46,13.7,22.75,14.59,2.43.23,4,1.38,5.4,3.93.92,1.72,2.74,2.71,4.13,4.07A49.91,49.91,0,0,1,182,52c9,11.91,14.85,25.91,20,40.73,6.4,18.38,9.23,37.83,13.46,56.86a25.28,25.28,0,0,1,.28,5.52c-.06,16.66-.24,33.31-.16,50,0,4.41-.65,8-3.58,10.92a54.69,54.69,0,0,0-4.78,6l-1.92-.91V205.3c0-.43-.35-.73-.69-.6-4.87,2-9.28,3.37-13.34,5.67-7.61,4.28-15.66,4.37-23.71,4.62-6.39.21-12.78,0-19.81,0a.59.59,0,0,0-.52.63,68.77,68.77,0,0,0,.13,8.83c.12.92,1.66,2.11,2.63,2.23,3.49.41,7,.37,10.53.58,2.34.14,4.81-.67,6.48,2.74.5,1,2.81.95,4.3,1,10,.42,19.91.73,29.87,1.11a9.52,9.52,0,0,1,4.18,1c-4.18.34-8.35.71-12.53,1-12.51.88-25,2.31-37.53,2.43-13.11.12-26.22-1.34-39.33-1.54-13.7-.2-27.4.27-41.1.47-6.44.1-12.89.56-19.32.34-14.12-.49-28.22-1.3-42.33-2a.57.57,0,0,1-.5-.56v-.07a.63.63,0,0,1,.36-.67,5.55,5.55,0,0,1,1.55-.44c10.65-.63,21.3-1.15,31.94-1.88,1.33-.09,2.59-1.32,3.91-1.92a8.84,8.84,0,0,1,2.93-1,91.88,91.88,0,0,1,12-.43c3.67.24,4.88-1.5,4.36-5.64-.07-.57-.1-1.14-.14-1.88A.58.58,0,0,0,69.13,218.87Zm21.56-201a.48.48,0,0,0-.91-.1C85.6,25.69,81.34,33,84.35,42.86a34.4,34.4,0,0,1,1,5.41c1,7.77,6.19,10.31,11.2,12.59,3.94,1.79,5.67-2.65,7.81-5.51.07-.09.22-.09.49-.19,1.63,5.05,5.21,6,8.93,5a17.25,17.25,0,0,0,7.38-4.44c7.47-7.43,6.06-24.89-.93-34.24a.46.46,0,0,0-.67-.1L116.23,24a.47.47,0,0,1-.74-.21l-3.31-7.11a.48.48,0,0,0-.91,0c-1.8,3.84-3.35,7.13-5.23,11.12a.48.48,0,0,1-.89,0L99,15.41a.47.47,0,0,0-.76-.18l-5.88,5.41a.49.49,0,0,1-.8-.26Zm4.47,55.41h0a.62.62,0,0,0-.46-.68,17,17,0,0,1-2.84-.44c-.84-.25-2.31-.84-2.31-1.29,0-3.67-2.45-3.12-4-3.26-2.54-.21-4.29-.65-4-4.54,0-.68-1.48-1.88-2.43-2.25-2.93-1.13-5.92-2-9.16-3.07a.68.68,0,0,1-.3-.95l2.59-5a.69.69,0,0,0-.28-.94l-8.54-3.44a.69.69,0,0,1-.28-1l3.39-6.26a.66.66,0,0,0-.4-1c-10.72-.75-17.69,7.42-26.41,13.84a.71.71,0,0,0-.06,1c2.94,2.89,5.24,5.79,8,7.45,4.27,2.54,8.93,4.15,13.46,6C72,72,83.36,72.33,94.59,73.89A.55.55,0,0,0,95.16,73.32ZM169.6,51c-5.77-4.46-10.31-11.3-16.14-12.86a.48.48,0,0,0-.43.1c-4.9,4.25-8.9,7.62-12.81,11.16a7.93,7.93,0,0,0-2.58,3.69c-.64,2.85-1.95,3.66-4.11,3.25-2.72-.52-4.36.63-4.28,4.21.1,4.43-1.79,5.71-5.11,5s-4.24,1.36-4.22,4.95a.58.58,0,0,0,.5.62c8.45.39,16.35-2.28,24.18-5.48,4.18-1.71,8.32-3.56,12.55-5.08,4.64-1.66,9.9-1.83,12.64-8.8A.71.71,0,0,0,169.6,51ZM125,217.51H91.54a.59.59,0,0,0-.52.64c0,2.34.12,4.14,0,5.91-.29,3.47.75,4.88,3.72,4.69,4.19-.26,8.41-.22,12.61-.11,5,.12,10,.61,15,.54a4.06,4.06,0,0,0,3-2.71,55.56,55.56,0,0,0,.15-8.34A.59.59,0,0,0,125,217.51Z"/></g></g></g></g></g></svg>