<svg xmlns="http://www.w3.org/2000/svg" viewBox="0 0 255.68 256.64"><title>Asset 17</title><g id="Layer_2" data-name="Layer 2"><g id="Layer_5" data-name="Layer 5"><g id="KlTsfZ.tif"><g id="AQapoV.tif"><path d="M67.77,198.67h7.34c2-4.18,1.32-6.69-3.23-7.95s-8.82-2.95-12.8-4.32L52.26,194l-1.56-1.1c1.16-3.54,2.32-7.09,3.54-10.85-4.87-2.31-9.4-4.74-14.15-6.61-3.5-1.38-8.19-.77-8.08-6.64,0-.76-1.79-1.77-2.93-2.3-5.28-2.44-10.58-4.89-16-7-1.82-.72-4.07-.3-6-.84-2.42-.69-5.69-1.22-6.76-3s.48-4.68.87-7.1c2.06.47,5.12.26,6,1.55,3,4.3,7.64,4.77,11.78,6.43,3.37,1.36,6.87,2.37,11.62,4-3-11.56-11.94-21.68-3-33.49h5.25c-1.59-4.44-3-8.15-4.23-11.94-.51-1.6-1.37-4-.65-4.91,4.85-5.79,4-13.06,5.46-19.66,2.8-13,2.52-13.06-9.8-18.09-1.36-.55-2.67-1.19-4.61-2.06,4.64-9,7.81-18.81,14.08-25.89,4.14-4.67,12.62-5.85,19.41-7.64,3.71-1,8-.21,11.93.2,2.3.24,4.5,1.35,7.76,2.39A107.51,107.51,0,0,0,74,28.27a51.07,51.07,0,0,0-.57-10.47c-.44-3.21-.3-5.81,2.86-7.73a5,5,0,0,0,2.21-3.62C78.35,1.73,81.37.9,84.89.82c4.23-.09,8.63-2.56,12.67,1.53,1.24,1.26,5.13-.07,6.35,1.19a20.34,20.34,0,0,1,5,8.76c2.17,8.79,3.67,17.75,5.54,27.16,2.87-.78,4.8-.74,5.88-1.69,4.85-4.24,10.15-5.1,16.2-3.22a26.52,26.52,0,0,0,8.32,1.58c10.77-.34,16.45,5.81,20.32,14.86,1.54,3.63,3.8,6.95,6,10.92-4.85,2.27-9.24,4.57-13.82,6.39-3.62,1.44-4.14,3.37-2.85,6.89,2.56,7,4.62,14.24,7,21.33.43,1.27,1.8,2.2,2.31,3.46.94,2.31,2.19,4.75,2.19,7.13,0,5.38-.7,10.75-1.18,17L177.3,123c0,1.93.07,3.84,0,5.75-.51,11.65-.88,23.31-1.7,34.94-.22,3.15-1.73,6.24-2.85,9.3a3.36,3.36,0,0,1-2,2c-6.6,1.15-11.77,8.29-19.55,4.52-3.65-1.77-5.77-6.62-3.53-10.06,7.44-11.36,7.49-24.11,7.53-36.94,0-3.05.06-5.8,2-9,1.8-3,0-8.33-.65-12.56a48.79,48.79,0,0,0-2.78-8.93c-3.23-8.73-6.46-17.47-10-26.1-.61-1.49-2.55-2.43-3-2.87-2.67,2.89-4.43,5.38-6.75,7.15-3.29,2.51-7,4.49-10.51,6.71-7,4.45-8.66,9.75-5.15,17.38,2.54,5.55,5.35,11,8,16.37-3.41,1.56-7.62,2.16-8.88,4.42-1.38,2.46,0,6.45.13,9.78.71,13.3,1.54,26.6,2.08,39.92.14,3.36,1.24,5,4.56,5.94,30.36,8.84,60.51,18.46,91.07,26.53,13.76,3.64,24.83,9.25,31.82,22,2.13,3.87,5.28,7.17,8.53,11.49-7.48.57-14.19.49-20.65,1.7-14,2.64-26.1-3.19-38.57-7.58-19.93-7-39.83-14.12-59.76-21.17-1.38-.49-2.83-.81-5-1.41.43,5.71,1.28,10.95,1.11,16.15-.28,8.6,3.2,14.46,10.89,18.19a28.78,28.78,0,0,1,6.45,4.68,4.4,4.4,0,0,1,1.22,3.34,3.15,3.15,0,0,1-2.44,1.8c-11.16.15-22.32.24-33.48,0-.92,0-2.49-2.64-2.54-4.1-.57-13.82-1.11-27.65-1.11-41.47,0-4.73-1.73-6.83-6-8.14-7.14-2.2-14.14-4.83-21.2-7.28l-1,1.19,4.55,4.46v55.07c-1.87.2-3.29.47-4.72.48-9.16,0-18.32.1-27.49-.08a5.53,5.53,0,0,1-3.8-2.15c-.36-.52.89-2.46,1.75-3.47a17,17,0,0,1,4.07-3.66c8.51-5,10.66-12.59,10-22C67.27,216.65,67.77,208,67.77,198.67Zm10.5-30.82c0-11-.15-21.33,0-31.64.19-9.8.34-9.8-8.81-13.28-.15-.05-.25-.22-.87-.79,1.34-4.93,2.7-10.19,4.19-15.41,2.08-7.27-.39-14.38-7.09-17.53a87.36,87.36,0,0,1-14.2-8.32c-4.16-3-5.29-2.94-6.52,2.16-1.82,7.61-4,15.16-5.23,22.86-1.09,6.69-2,13.59.4,20.26.49,1.35,1.81,2.42,2.83,3.55,1.43,1.56,3.68,2.81,4.28,4.62,3.07,9.33,5.68,18.8,8.59,28.18.55,1.79,1.73,3.37,3.23,6.19L63.61,156l4.09,2c-.56,2.28-1,4.15-1.56,6.39Zm9.67-39.16c-1,13.12-2,25.85-2.87,38.6-.07,1,.8,2.84,1.57,3.06,8.48,2.34,17,4.43,26.21,6.75-1.9-17.49-3.69-33.87-5.44-49.93-4.87-1.26-9.65,5-13.82-2.39C94.61,131,90.92,128.67,87.94,128.69Zm14.53-92.85c5.73-6.8,8.9-14.26,3-22.67C102.54,9,99.88,3.72,92.4,6.05c1.08,2,2,3.74,2.92,5.39-5.5,5.71-11.19,18.23-10.57,23.36,2.62-3,2.39-8.19,8.85-7.68C99.89,27.62,98.8,33.29,102.47,35.84Zm-.31,4.37c-4-5.85-9.28-7.78-12.94-5.25-1.72,1.18-5.06,2-1.36,5.85C91.85,33.37,96.64,39.51,102.16,40.21Z"/></g></g></g></g></svg>