<svg xmlns="http://www.w3.org/2000/svg" viewBox="0 0 102 148.7"><title>Asset 16</title><g id="Layer_2" data-name="Layer 2"><g id="Layer_5" data-name="Layer 5"><g id="KlTsfZ.tif"><g id="AQapoV.tif"><g id="LCghJJ.tif"><path d="M0,143.06c8.63-.42,17.26-1,25.9-1.23,3.94-.12,6.16-1,5.94-5.72-.17-3.61,1.3-7.27,1.7-10.94.32-3-1.32-4.39-4.37-4.86-6.2-1-7.42-4.22-3.78-9.6,2.29-3.39,4.39-6.77,3.95-12.34l-7,5.35,1.55.85c-1.26-1.73-2.24-3.78-3.83-5.12C15.2,95.38,10.18,91.54,5.16,87.7c-2.55-2-2.95-3.88-.39-6.06C14.68,73.18,21,61,32.92,54.6a5,5,0,0,0,1.78-2.79c.86-2.65,1.51-5.36,2.24-8.05,3.21,2.3,6.36,4.66,9.65,6.82a3,3,0,0,0,2.71.16c4.39-3.42,9.61-6.32,10-12.82.35-5.94.8-11.91.68-17.85-.1-5-2.52-6.16-7-4a8.47,8.47,0,0,1-3.75,1.15c-4.13-.12-6.39,2.11-7.89,5.58-1,2.24-2,4-5.18,3.29s-3.83,1.78-3.26,4.06c1.15,4.63,2.76,9.15,4.17,13.72-2.79-2.43-7-4.35-8.08-7.38a88.76,88.76,0,0,1-4.62-22.25C24,9.06,33.82,1.37,39.27,1c6.42-.4,13-2.59,19.07,1,2.31,1.37,5.22,3.72,5.6,6,1.4,8.49,1.93,17.14,2.62,25.74.09,1.21-.37,3.14-1.22,3.66-5.09,3.07-3.47,8.06-3.78,12.43a5.23,5.23,0,0,0,1.58,3.91c3.58,2.89,7.44,5.44,11.19,8.13.52.37,1.31.67,1.48,1.18,3.06,8.7,11,13.09,17,19.13C95,84.41,95.15,85.92,93,88c-4.75,4.67-9.56,9.3-14.09,14.17-2.32,2.49-4.21,3.78-7.51.51.33,1.79.27,3.78,1.07,5.33,1.59,3,3.71,5.79,5.49,8.73.86,1.41,2.4,3.9,2,4.3a9.09,9.09,0,0,1-5.23,2.85c-3.83.27-6.67,1.46-5.32,5.59a26.29,26.29,0,0,0,5.81,10.26c1.77,1.78,5.44,2,8.32,2.26,6.12.57,12.28.73,18.43,1.05v3c-4,.22-8,.47-11.94.66-15.09.72-30.17,1.92-45.26,2-14.93.06-29.87-1-44.8-1.64Zm60.85-1.3c-1.34-5.72-1.53-10.66-3.72-14.41-1.46-2.5-5.69-3.7-8.93-4.58-.7-.19-3.08,3.26-3.58,5.31a49.79,49.79,0,0,0-1,10.72c0,1,1.17,2.79,1.88,2.83C50.32,141.88,55.2,141.76,60.85,141.76ZM26.63,95.21l1.17-.86L23.31,79.56l-9.52,5ZM75.26,81.56c-1,5.09-1.93,9.47-2.82,13.85l.83.63C76.16,92.65,79,89.25,82,85.77Z"/></g></g></g></g></g></svg>