<svg xmlns="http://www.w3.org/2000/svg" viewBox="0 0 120.92 267.89"><title>Asset 9</title><g id="Layer_2" data-name="Layer 2"><g id="Layer_5" data-name="Layer 5"><g id="_8PU8jT.tif" data-name="8PU8jT.tif"><path d="M105,265.41c4.88.75,10.64-2.57,15.91.36v1.79c-4.67,0-9.34.09-14,0-3.54-.08-7.08-.47-10.62-.64s-5.6-1.31-6.29-5.26c-2.81-16.15-6-32.23-8.9-48.36-.41-2.33.28-4.83.17-7.24a7.52,7.52,0,0,0-1.21-4.18c-.38-.47-2.58,0-3.6.68-2.87,1.78-3.82.75-4.17-2.19-.8-6.91-1.7-13.81-2.61-20.7-.23-1.74-.64-3.45-1-5.17l-1.49.09c0,3.15,0,6.29,0,9.43s-.21,6.58.43,9.72c1.25,6.18-.81,10.11-6.81,11.94-1.38.43-2.81.65-4.22,1a26,26,0,0,1-.57-4c0-6.8.13-13.6.15-20.4a7.74,7.74,0,0,0-.84-3.42c-1,7.28-2,14.55-3.08,22.66-3-1.27-5.22-2.15-7.39-3.14-2.4-1.08-3.84-.58-4.22,2.2-.49,3.56-2.61,7.05.09,10.69.55.74,0,2.37-.2,3.58-2.07,14.69-4.29,29.36-6.19,44.08-.93,7.24-1.14,7.73-8.35,8s-14.22.43-21.31.94c-4,.29-5-1.06-4.66-5,1.81-22.66,3.39-45.35,4.9-68,.1-1.48-1-3-1.61-4.55-.75-1.94-1.93-3.81-2.2-5.82-.46-3.44,2.54-12.9,4-16.33,1-2.25.82-4.94,1.26-7.42s1.3-4.95,1.48-7.47Q11.07,109.93,14,66.64a22.68,22.68,0,0,0-1.1-7.15c-1.43-5.4-.61-10.61.51-16,.8-3.85.72-7.88,1.15-11.82.15-1.43.42-3.93,1-4a16.46,16.46,0,0,1,6.7.24c.46.11.8,2.81.41,4.07-1.49,4.78-1.62,9.31.63,14,2.55,5.25,4.16,10.72,1.49,15.57-.9-2.48-2.13-5.84-3.35-9.21l-1.91.41c.37,4,.71,8.05,1.13,12.06.31,2.9,1.17,5.79-2,8-.75.53-.86,2.23-.95,3.41Q15.51,108.1,13.34,140a6,6,0,0,0,.67,3.13c6.15-8.56,7-19,10.46-28.9l4.89,2.51c6.37-6.54,2.26-32.43-7.36-43.24L52.84,48.42c5.79,4.34,8.57,4.23,11.85-.77.3,0,.77-.09.87.06,4.36,6.19,10.91,9.17,17.38,12.51C86.25,61.93,89,65,91.52,67.83c.92,1,1,3.53.51,5-4.44,12.2-2,24.81-2.31,37.23,0,2.08,1.48,4.39,2.8,6.21.43.6,2.74.46,3.78-.11,2.31-1.28,3.5-.72,4,1.67,3.22,14.52,10,27.5,17.37,40.23a5.43,5.43,0,0,1,.84,2.6c-.09,7.64-.19,15.29-.47,22.92a9.73,9.73,0,0,1-6.16,9.16l1.74-5.17-7.27.77-.5-1.54,4.93-3.56-5.34-2.7a29.55,29.55,0,0,0,4.75-1.33c1.64-.84,4.47-2.09,4.41-3-.21-2.77-1.55-5.45-2.45-8.17a26.84,26.84,0,0,0-4.58,3.38,27.76,27.76,0,0,0-2.95,4.92l-2.07-1,4.67-12c-4.75-12.13-12.59-23.4-21.42-34.23-2.33-2.85-2-8.31-2-12.58-.05-11.85.38-23.7.53-35.56,0-.72-.81-1.45-1.25-2.18l-1.35-.06c-.93,6.51-1.85,13-2.89,20.26l-5.06-5.13c-.65,2.1-2,4.28-1.81,6.28a138.57,138.57,0,0,0,2.82,14.62c.22,1,1.36,1.91,1.35,2.86-.09,11.94,6.65,21.66,10.5,32.29,3.26,9,7.31,17.7,11,26.54.21.51,0,1.17,0,2.84l-7.25-6-1.31.61c2.55,6.81,5.09,13.61,8.07,21.59L87,192.31c1.07,5-.15,9.5,4.32,12.66,1.17.83,1.75,2.82,2.13,4.4,3.93,16,7.82,32.1,11.54,48.2C105.47,259.9,105,262.45,105,265.41ZM37.1,83.62,35.64,84c.21,2.69.47,5.38.63,8.08.54,9.09,1.29,18.18,1.48,27.28.1,4.66-.56,9.07-3.6,13.42-5.28,7.54-9.48,15.84-13.93,23.94-1.7,3.08-2.83,6.48-4.66,10.76,3.58,7.41,3.4,9.65-2.55,14.79a16.37,16.37,0,0,1,.48-4.7c.26-1.41.46-2.83.68-4.25a11.58,11.58,0,0,0-2-.3,22.76,22.76,0,0,0-1,4.21,41.05,41.05,0,0,0-.42,6c0,2.25.38,4.5.59,6.75a89.72,89.72,0,0,0-1.27,9.74Q8.33,222.77,6.63,245.9c-.38,5.09-.81,10.19-.82,15.28,0,1.5,1.47,4.32,2.06,4.27a106.75,106.75,0,0,0,11.4-2.07c-.74-2.66-2.18-4.94-1.77-6.82,3.57-16.29,7.44-32.51,11.3-48.73.31-1.28.81-3,1.78-3.57,4.35-2.76,3.08-7,4.08-11.26l-5.82.9c2.75-7,5.39-13.79,8-20.55l-1.24-.52L25.1,182.24,24,181.14c.88-1.73,1.75-3.47,2.65-5.2,9.5-18.23,16.63-37.17,17.24-58a3.28,3.28,0,0,1,.6-2.16c4.26-3.53,3.28-8.82,4.27-13.33.52-2.33-.93-5.09-1.68-8.52l-5.31,5C40.59,93.2,41,87.58,37.1,83.62Z"/><path d="M67.58,19.45l5.88-3.56c.65,4.23-.81,7.05-3.23,9.89a41.86,41.86,0,0,0-5,8.35c-.81,1.63-1,3.57-1.62,5.3-1.08,2.93-2.45,6.84-5.94,5.93-2.78-.72-6.21-3.72-7-6.38C49,33.06,46.89,28.17,41.34,24.81c-1.62-1-1.9-4.18-3.12-7.14l5.29.92c.42-2.82,1-5.36,1.15-7.92C45,4.93,49,.62,54.61.19c8.86-.68,9.82.11,11.17,9.05C66.25,12.34,66.87,15.43,67.58,19.45Z"/></g></g></g></svg>